<svg xmlns="http://www.w3.org/2000/svg" viewBox="0 0 800 800">
  <rect width="800" height="800" fill="#FFF4D6"/>
  <path d="M400 80 C400 180 330 230 270 310" stroke="#1D3A6E" stroke-width="18" fill="none" stroke-linecap="round"/>
  <path d="M400 80 C400 170 470 230 540 330" stroke="#1D3A6E" stroke-width="18" fill="none" stroke-linecap="round"/>
  <ellipse cx="360" cy="140" rx="50" ry="28" fill="#C6F25A" stroke="#1D3A6E" stroke-width="8" transform="rotate(-20 360 140)"/>
  <ellipse cx="455" cy="145" rx="46" ry="24" fill="#FFE14A" stroke="#1D3A6E" stroke-width="8" transform="rotate(24 455 145)"/>
  <circle cx="280" cy="470" r="170" fill="#FF3B4A" stroke="#1D3A6E" stroke-width="16"/>
  <circle cx="530" cy="490" r="160" fill="#FF2F55" stroke="#1D3A6E" stroke-width="16"/>
  <circle cx="270" cy="460" r="78" fill="#F6C9A8"/>
  <circle cx="545" cy="488" r="72" fill="#F6C9A8"/>
  <path d="M240 455 q10 8 28 0" stroke="#1D3A6E" stroke-width="8" fill="none" stroke-linecap="round"/>
  <path d="M248 488 q22 16 48-4" stroke="#1D3A6E" stroke-width="8" fill="none" stroke-linecap="round"/>
  <circle cx="252" cy="448" r="8" fill="#1D3A6E"/>
  <circle cx="288" cy="448" r="8" fill="#1D3A6E"/>
  <path d="M518 478 q18 22 46 4" stroke="#1D3A6E" stroke-width="8" fill="none" stroke-linecap="round"/>
  <circle cx="528" cy="470" r="9" fill="#1D3A6E"/>
  <circle cx="566" cy="470" r="9" fill="#1D3A6E"/>
  <polygon points="160,220 176,262 220,264 186,292 198,336 160,312 122,336 134,292 100,264 144,262" fill="#FFE14A" stroke="#1D3A6E" stroke-width="6"/>
  <polygon points="640,200 654,236 692,238 662,262 672,300 640,278 608,300 618,262 588,238 626,236" fill="#FFE14A" stroke="#1D3A6E" stroke-width="6"/>
</svg>
